<?xml version="1.0" encoding="iso-8859-1"?>
<!-- Uploaded to: SVG Repo, www.svgrepo.com, Generator: SVG Repo Mixer Tools -->
<svg version="1.1" id="Layer_1" xmlns="http://www.w3.org/2000/svg" xmlns:xlink="http://www.w3.org/1999/xlink" 
	 viewBox="0 0 512.005 512.005" xml:space="preserve">
<rect y="104.44" style="fill:#E2E2E2;" width="512.005" height="303.126"/>
<g>
	<rect x="371.116" y="184.949" style="fill:#999999;" width="94.442" height="8"/>
	<rect x="46.458" y="253.754" style="fill:#999999;" width="419.1" height="8"/>
	<rect x="296.948" y="356.952" style="fill:#999999;" width="168.599" height="8"/>
	<rect x="46.458" y="356.952" style="fill:#999999;" width="130.752" height="8"/>
</g>
<g>
	<path style="fill:#E21B1B;" d="M63,230.211v-9.344c-5.476-0.058-10.846-1.515-15.6-4.232l2.6-9.056
		c4.552,2.701,9.732,4.162,15.024,4.24c6.064,0,10.208-2.992,10.208-7.608c0-4.336-3.376-7.136-10.496-9.736
		c-10.12-3.656-16.664-8.28-16.664-17.232c0.193-8.632,6.896-15.712,15.504-16.376v-9.432h7.896v8.952
		c4.613,0.06,9.153,1.153,13.288,3.2l-2.6,8.856c-4.042-2.117-8.533-3.239-13.096-3.272c-6.744,0-9.16,3.472-9.16,6.744
		c0,3.952,3.472,6.168,11.656,9.44c10.792,4.048,15.6,9.248,15.6,17.824c-0.183,9.06-7.234,16.489-16.272,17.144v9.92L63,230.211z"
		/>
	<path style="fill:#E21B1B;" d="M115.944,170.019h-0.184l-11.464,5.784l-2.024-8.96l15.2-7.504h9.912v62.6h-11.44V170.019z"/>
	<path style="fill:#E21B1B;" d="M145.6,233.595c2.857-8.283,5.016-16.79,6.456-25.432l12.424-0.96
		c-2.615,8.915-6.236,17.503-10.792,25.6L145.6,233.595z"/>
	<path style="fill:#E21B1B;" d="M215.888,190.243c0,20.136-7.896,32.752-22.832,32.752c-14.448,0-22.16-13.104-22.248-32.168
		c0-19.456,8.28-32.552,22.92-32.552C208.856,158.267,215.888,171.755,215.888,190.243z M182.752,190.818
		c-0.096,15.2,4.144,23.12,10.688,23.12c6.936,0,10.592-8.48,10.592-23.496c0-14.544-3.464-23.12-10.592-23.12
		c-6.344,0-10.776,7.808-10.68,23.504L182.752,190.818z"/>
	<path style="fill:#E21B1B;" d="M267.496,190.243c0,20.136-7.896,32.752-22.832,32.752c-14.448,0-22.16-13.104-22.248-32.168
		c0-19.456,8.28-32.552,22.92-32.552C260.464,158.267,267.496,171.755,267.496,190.243z M234.36,190.818
		c-0.096,15.2,4.144,23.12,10.688,23.12c6.936,0,10.592-8.48,10.592-23.496c0-14.544-3.464-23.12-10.592-23.12
		c-6.352,0-10.784,7.808-10.688,23.504V190.818z"/>
	<path style="fill:#E21B1B;" d="M319.095,190.243c0,20.136-7.896,32.752-22.832,32.752c-14.448,0-22.16-13.104-22.248-32.168
		c0-19.456,8.28-32.552,22.92-32.552C312.064,158.267,319.095,171.755,319.095,190.243z M285.96,190.818
		c-0.096,15.2,4.144,23.12,10.688,23.12c6.936,0,10.592-8.48,10.592-23.496c0-14.544-3.464-23.12-10.592-23.12
		c-6.353,0-10.784,7.808-10.688,23.504V190.818z"/>
</g>
<path style="fill:#999999;" d="M333.84,329.219l3.056-6.776c1.296-2.848,4.184-9.096,7.4-15
	c-14.4,7.104-36.128,18.224-38.576,19.904l-4.656-6.504c16.877-9.54,34.234-18.207,52-25.968l0.2-0.16l0.056,0.072
	c1.311-0.621,2.763-0.883,4.209-0.76l2.344,3.264l-1.936,3.92c-4.242,5.437-7.769,11.394-10.496,17.728l34.776-5.544l32.888-12.736
	l12.096,12.472l14.471,3.776l20.8-15.336l4.752,6.4l-23.872,17.6l-20.313-5.304l-10-10.256l-29.168,11.2L333.84,329.219z"/>
</svg>