<?xml version="1.0" encoding="iso-8859-1"?>
<!-- Uploaded to: SVG Repo, www.svgrepo.com, Generator: SVG Repo Mixer Tools -->
<svg version="1.1" id="Layer_1" xmlns="http://www.w3.org/2000/svg" xmlns:xlink="http://www.w3.org/1999/xlink" 
	 viewBox="0 0 390.659 390.659" xml:space="preserve">
<polygon style="fill:#56ACE0;" points="21.301,72.469 21.301,128.323 368.194,128.323 368.194,72.469 194.747,22.109 "/>
<path style="fill:#FFFFFF;" d="M48.388,368.42h26.57V200.921c0-5.947,4.848-10.861,10.861-10.861h92.703
	c5.947,0,10.861,4.848,10.861,10.861V368.42h151.725V149.98H48.388V368.42z M211.038,200.921c0-5.947,4.848-10.861,10.861-10.861
	h89.406c5.947,0,10.861,4.848,10.861,10.861v89.406c0,5.947-4.848,10.861-10.861,10.861h-89.471
	c-5.947,0-10.861-4.848-10.861-10.861v-89.406H211.038z"/>
<g>
	<rect x="96.679" y="211.782" style="fill:#FFC10D;" width="70.982" height="156.638"/>
	<rect x="232.695" y="211.782" style="fill:#FFC10D;" width="67.749" height="67.749"/>
</g>
<g>
	<path style="fill:#194F82;" d="M382.287,54.044L197.98,0.388c-2.198-0.517-4.331-0.517-5.947,0L7.79,54.044
		c-4.913,1.099-7.628,5.43-7.628,10.343v75.313c0,5.947,4.848,10.861,10.861,10.861h16.291v229.236
		c0,5.947,4.848,10.861,10.861,10.861h314.311c5.947,0,10.861-4.848,10.861-10.861V149.98h16.291
		c5.947,0,10.861-4.848,10.861-10.861V64.388C389.85,59.475,386.618,55.143,382.287,54.044z M167.661,368.42H96.679V211.782h70.982
		V368.42z M341.107,368.42h-151.79V200.921c0-5.947-4.848-10.861-10.861-10.861H85.818c-5.947,0-10.861,4.848-10.861,10.861V368.42
		h-26.57V149.98h292.655v218.44H341.107z M368.194,128.323H21.301V72.469l173.446-50.424l173.446,50.424V128.323z"/>
	<path style="fill:#194F82;" d="M221.834,301.188h89.406c5.947,0,10.861-4.848,10.861-10.861v-89.406
		c0-5.947-4.848-10.861-10.861-10.861h-89.406c-5.947,0-10.861,4.848-10.861,10.861v89.406
		C211.038,296.339,215.887,301.188,221.834,301.188z M232.695,211.782h67.749v67.749h-67.749V211.782z"/>
	<path style="fill:#194F82;" d="M127.515,61.091h-12.477c-2.715,0-4.331,2.198-4.331,4.331v44.994c0,2.715,2.198,4.331,4.331,4.331
		c2.715,0,4.331-2.198,4.331-4.331V96.84h7.564c10.861-0.517,16.808-6.529,17.907-17.907
		C144.905,67.62,138.376,62.19,127.515,61.091z M127.515,88.178h-7.564V70.271h7.564c3.814,0,8.663,1.616,9.244,8.663
		C136.242,84.945,132.945,88.178,127.515,88.178z"/>
	<path style="fill:#194F82;" d="M177.939,61.091c-14.61,0-25.988,11.895-25.988,27.087c0,14.61,11.378,27.087,25.988,27.087
		s25.988-11.895,25.988-27.087C203.992,73.568,192.55,61.091,177.939,61.091z M177.422,106.085c-9.244,0-16.808-8.145-16.808-17.907
		s7.564-17.907,16.808-17.907c9.762,0,16.808,7.564,16.808,17.907C194.23,97.939,186.602,106.085,177.422,106.085z"/>
	<path style="fill:#194F82;" d="M224.032,81.713c-3.232-1.099-5.947-2.715-5.947-6.529c0-2.715,3.232-4.848,6.529-4.848
		c1.616,0,3.232,0.517,4.331,1.616c2.198,1.099,4.331,1.099,6.529-1.099c1.616-2.198,1.099-4.848-1.099-5.947
		c-2.715-2.198-6.529-3.232-9.762-3.232c-3.814,0-7.564,1.099-10.279,3.232c-3.232,2.715-4.848,6.529-5.43,10.279
		c0,7.046,3.814,11.895,11.895,14.61c2.715,1.099,9.762,4.331,10.279,8.145c-0.517,4.848-3.232,7.564-8.663,8.145
		c-3.232,0-5.947-1.616-7.564-4.331c-1.099-2.198-3.232-3.232-5.947-2.198c-2.198,1.099-3.232,2.715-2.198,5.947
		c2.715,5.43,9.244,9.244,15.709,9.244c9.244,0,17.907-7.564,17.907-16.808C240.259,86.562,226.166,82.23,224.032,81.713z"/>
	<path style="fill:#194F82;" d="M273.875,61.673h-27.087c-2.715,0-4.331,2.198-4.331,4.331c0,2.198,2.198,4.331,4.848,4.331h9.244
		v40.081c0,2.715,2.198,4.331,4.331,4.331c2.715,0,4.331-2.198,4.331-4.331V70.335h8.663c2.715,0,4.331-2.198,4.331-4.331
		C278.206,63.289,276.073,61.673,273.875,61.673z"/>
</g>
</svg>